<?xml version="1.0" encoding="UTF-8" standalone="no"?>
<!-- Created with Inkscape (http://www.inkscape.org/) -->

<svg
   xmlns:dc="http://purl.org/dc/elements/1.1/"
   xmlns:cc="http://creativecommons.org/ns#"
   xmlns:rdf="http://www.w3.org/1999/02/22-rdf-syntax-ns#"
   xmlns:svg="http://www.w3.org/2000/svg"
   xmlns="http://www.w3.org/2000/svg"
   xmlns:sodipodi="http://sodipodi.sourceforge.net/DTD/sodipodi-0.dtd"
   xmlns:inkscape="http://www.inkscape.org/namespaces/inkscape"
   width="300"
   height="200"
   viewBox="0 0 300 200.00001"
   version="1.1"
   id="svg12731"
   inkscape:version="0.92.3 (2405546, 2018-03-11)"
   sodipodi:docname="GotG-flagB -vI.svg">
  <defs
     id="defs12725" />
  <sodipodi:namedview
     id="base"
     pagecolor="#ffffff"
     bordercolor="#666666"
     borderopacity="1.0"
     inkscape:pageopacity="0.0"
     inkscape:pageshadow="2"
     inkscape:zoom="3.25"
     inkscape:cx="81.665249"
     inkscape:cy="47.572981"
     inkscape:document-units="px"
     inkscape:current-layer="layer1"
     showgrid="true"
     units="px"
     inkscape:snap-object-midpoints="true"
     inkscape:snap-text-baseline="true"
     inkscape:snap-grids="false"
     inkscape:snap-intersection-paths="true"
     inkscape:window-width="1080"
     inkscape:window-height="1857"
     inkscape:window-x="1358"
     inkscape:window-y="-8"
     inkscape:window-maximized="1"
     inkscape:object-paths="false"
     inkscape:snap-smooth-nodes="false">
    <inkscape:grid
       type="xygrid"
       id="grid13276"
       spacingx="10"
       spacingy="10" />
  </sodipodi:namedview>
  <metadata
     id="metadata12728">
    <rdf:RDF>
      <cc:Work
         rdf:about="">
        <dc:format>image/svg+xml</dc:format>
        <dc:type
           rdf:resource="http://purl.org/dc/dcmitype/StillImage" />
        <dc:title></dc:title>
      </cc:Work>
    </rdf:RDF>
  </metadata>
  <g
     inkscape:groupmode="layer"
     id="layer25"
     inkscape:label="background">
    <rect
       style="fill:#000000;fill-opacity:1;stroke:none;stroke-width:0.75;stroke-linecap:butt;stroke-linejoin:miter;stroke-miterlimit:4;stroke-dasharray:none;stroke-dashoffset:0;stroke-opacity:1"
       id="rect13374"
       width="300"
       height="200"
       x="0"
       y="0" />
  </g>
  <g
     inkscape:label="logo"
     inkscape:groupmode="layer"
     id="layer1"
     transform="translate(0,-922.51966)">
    <path
       style="fill:#ffffff;stroke:#ffffff;stroke-width:2;stroke-linecap:butt;stroke-linejoin:miter;stroke-opacity:1;stroke-miterlimit:4;stroke-dasharray:none;fill-opacity:1"
       d="m 65.000382,957.5192 c 0,0 39.949528,-13.01494 59.999998,-10 29.48279,4.43326 50.51721,35.56674 80,40 20.05047,3.01494 60,-10 60,-10 l -30,110.0001 c 0,0 -39.94953,13.0149 -60,10 -29.48279,-4.4333 -50.51721,-35.5667 -79.999998,-40 -20.050467,-3.0149 -60,10 -60,10 z"
       id="path15132"
       inkscape:connector-curvature="0"
       sodipodi:nodetypes="cssccsscc" />
    <path
       style="fill:#000000;stroke:#ffffff;stroke-width:2;stroke-linecap:butt;stroke-linejoin:miter;stroke-opacity:1;stroke-miterlimit:4;stroke-dasharray:none;fill-opacity:1"
       d="M 35.000382,1067.5193 125.00038,997.5192 65.000382,957.51916 Z"
       id="path15134"
       inkscape:connector-curvature="0" />
    <path
       style="fill:#000000;stroke:#ffffff;stroke-width:2;stroke-linecap:butt;stroke-linejoin:miter;stroke-opacity:1;stroke-miterlimit:4;stroke-dasharray:none;fill-opacity:1"
       d="m 35.000382,1067.5193 89.999998,-70.0001 c 0,0 12.9035,5.1812 26.10628,15.2207 13.20277,10.0395 26.70482,24.9373 39.48346,27.617 19.84425,4.1614 60,-10 60,-10 l -15.58974,57.1624 c 0,0 -39.94953,13.0149 -60,10 -29.48279,-4.4333 -50.51721,-35.5667 -79.999998,-40 -20.050467,-3.0149 -60,10 -60,10 z"
       id="path15136"
       inkscape:connector-curvature="0"
       sodipodi:nodetypes="ccssccssc" />
    <path
       style="fill:#ffffff;stroke:none;stroke-width:0.5px;stroke-linecap:butt;stroke-linejoin:miter;stroke-opacity:1;fill-opacity:1"
       d="m 63.805693,973.11916 2.653497,-2.939 -1.617065,-2.9389 3.256995,1.1226 2.653486,-2.939 -0.640561,3.6328 3.256973,1.1225 -3.652845,1.1226 -0.640543,3.6327 -1.617053,-2.9389 z"
       id="path838"
       inkscape:connector-curvature="0" />
    <path
       inkscape:connector-curvature="0"
       id="path840"
       d="m 105.95954,1001.1192 2.6535,-2.93904 -1.61707,-2.9389 3.257,1.1226 2.65348,-2.939 -0.64056,3.6328 3.25697,1.1225 -3.65284,1.1226 -0.64054,3.63274 -1.61706,-2.93894 z"
       style="fill:#ffffff;stroke:none;stroke-width:0.5px;stroke-linecap:butt;stroke-linejoin:miter;stroke-opacity:1;fill-opacity:1" />
    <path
       style="fill:#ffffff;stroke:none;stroke-width:0.5px;stroke-linecap:butt;stroke-linejoin:miter;stroke-opacity:1;fill-opacity:1"
       d="m 41.651848,1054.0423 2.6535,-2.9391 -1.61707,-2.9389 3.257,1.1226 2.65348,-2.939 -0.64056,3.6328 3.25697,1.1225 -3.65284,1.1226 -0.64054,3.6328 -1.61706,-2.939 z"
       id="path842"
       inkscape:connector-curvature="0" />
    <ellipse
       style="fill:#ffffff;fill-opacity:1;stroke:none;stroke-width:6.04610252;stroke-linecap:round;stroke-linejoin:bevel;stroke-miterlimit:4;stroke-dasharray:none;stroke-dashoffset:0;stroke-opacity:1"
       id="path844"
       cx="165.7511"
       cy="1018.9921"
       rx="9.375"
       ry="9.5196247"
       transform="matrix(0.9961947,-0.08715574,-0.08715575,0.9961947,0,0)" />
    <path
       sodipodi:nodetypes="zscszscsz"
       inkscape:connector-curvature="0"
       id="path872"
       d="m 61.884994,1015.2793 c 0.323092,0.3291 1.284023,-0.5532 1.875907,-1.0196 4.771964,-3.7613 12.548453,-13.5914 12.548453,-13.5914 0,0 7.776479,-9.82984 12.548449,-13.59126 0.591887,-0.46646 1.552813,-1.34857 1.875906,-1.01957 0.323102,0.32909 -0.548016,1.30272 -1.008949,1.90257 -3.716144,4.83659 -13.415407,12.70826 -13.415407,12.70826 0,0 -9.699268,7.8719 -13.415413,12.7085 -0.460926,0.5998 -1.332038,1.5734 -1.008946,1.9025 z"
       style="fill:#ffffff;fill-opacity:1;stroke:none;stroke-width:0.63853157;stroke-linecap:butt;stroke-linejoin:miter;stroke-miterlimit:4;stroke-dasharray:none;stroke-opacity:1" />
    <path
       inkscape:connector-curvature="0"
       id="path874"
       d="m 91.042687,988.59479 -6.150154,5.37749"
       style="fill:#ffffff;stroke:#ffffff;stroke-width:0.375;stroke-linecap:butt;stroke-linejoin:miter;stroke-miterlimit:4;stroke-dasharray:none;stroke-opacity:1;fill-opacity:1" />
    <path
       style="fill:#ffffff;stroke:#ffffff;stroke-width:0.375;stroke-linecap:butt;stroke-linejoin:miter;stroke-miterlimit:4;stroke-dasharray:none;stroke-opacity:1;fill-opacity:1"
       d="m 88.236388,985.7368 -5.311065,6.23201"
       id="path876"
       inkscape:connector-curvature="0" />
    <path
       style="fill:#ffffff;stroke:#ffffff;stroke-width:0.375;stroke-linecap:butt;stroke-linejoin:miter;stroke-miterlimit:4;stroke-dasharray:none;stroke-opacity:1;fill-opacity:1"
       d="m 64.382325,1015.5999 5.311057,-6.232"
       id="path878"
       inkscape:connector-curvature="0" />
    <path
       inkscape:connector-curvature="0"
       id="path880"
       d="m 61.576018,1012.7419 6.150159,-5.3774"
       style="fill:#ffffff;stroke:#ffffff;stroke-width:0.375;stroke-linecap:butt;stroke-linejoin:miter;stroke-miterlimit:4;stroke-dasharray:none;stroke-opacity:1;fill-opacity:1" />
    <path
       style="fill:#ffffff;fill-opacity:1;stroke:none;stroke-width:0.63853157;stroke-linecap:butt;stroke-linejoin:miter;stroke-miterlimit:4;stroke-dasharray:none;stroke-opacity:1"
       d="m 57.574577,1002.3074 c -0.04455,0.5093 1.139057,0.4759 1.813689,0.5194 5.439544,0.3496 16.921088,-2.1585 16.921088,-2.1585 0,0 11.481551,-2.50809 16.921082,-2.15834 0.674636,0.0435 1.85824,0.0101 1.813692,0.5193 -0.04459,0.50922 -1.240522,0.68416 -1.933232,0.84716 -5.585107,1.31428 -16.801543,0.79188 -16.801543,0.79188 0,0 -11.216433,-0.5223 -16.801544,0.792 -0.692709,0.163 -1.888682,0.3379 -1.933232,0.8471 z"
       id="path882"
       inkscape:connector-curvature="0"
       sodipodi:nodetypes="zscszscsz" />
    <path
       style="fill:#ffffff;stroke:#ffffff;stroke-width:0.375;stroke-linecap:butt;stroke-linejoin:miter;stroke-miterlimit:4;stroke-dasharray:none;stroke-opacity:1;fill-opacity:1"
       d="m 93.429518,1001.365 -7.385262,-0.01"
       id="path884"
       inkscape:connector-curvature="0" />
    <path
       inkscape:connector-curvature="0"
       id="path886"
       d="m 93.81644,996.94212 -7.500927,1.31244"
       style="fill:#ffffff;stroke:#ffffff;stroke-width:0.375;stroke-linecap:butt;stroke-linejoin:miter;stroke-miterlimit:4;stroke-dasharray:none;stroke-opacity:1;fill-opacity:1" />
    <path
       inkscape:connector-curvature="0"
       id="path888"
       d="m 58.802268,1004.3946 7.500929,-1.3124"
       style="fill:#ffffff;stroke:#ffffff;stroke-width:0.375;stroke-linecap:butt;stroke-linejoin:miter;stroke-miterlimit:4;stroke-dasharray:none;stroke-opacity:1;fill-opacity:1" />
    <path
       style="fill:#ffffff;stroke:#ffffff;stroke-width:0.375;stroke-linecap:butt;stroke-linejoin:miter;stroke-miterlimit:4;stroke-dasharray:none;stroke-opacity:1;fill-opacity:1"
       d="m 59.189187,999.97171 7.385271,0.01"
       id="path890"
       inkscape:connector-curvature="0" />
    <path
       sodipodi:nodetypes="zscszscsz"
       inkscape:connector-curvature="0"
       id="path892"
       d="m 64.238751,988.37547 c -0.386109,0.39114 0.326841,1.22618 0.689034,1.75403 2.92071,4.25593 11.381569,10.5388 11.381569,10.5388 0,0 8.460908,6.283 11.38155,10.539 0.362204,0.5278 1.075166,1.3628 0.689056,1.754 -0.386098,0.391 -1.206338,-0.3353 -1.725068,-0.7046 -4.182376,-2.978 -10.345539,-11.5884 -10.345539,-11.5884 0,0 -6.163147,-8.61038 -10.345542,-11.58829 -0.518727,-0.3693 -1.338961,-1.09557 -1.72506,-0.70454 z"
       style="fill:#ffffff;fill-opacity:1;stroke:none;stroke-width:0.63853157;stroke-linecap:butt;stroke-linejoin:miter;stroke-miterlimit:4;stroke-dasharray:none;stroke-opacity:1" />
    <path
       style="fill:#ffffff;stroke:#ffffff;stroke-width:0.375;stroke-linecap:butt;stroke-linejoin:miter;stroke-miterlimit:4;stroke-dasharray:none;stroke-opacity:1;fill-opacity:1"
       d="m 63.477598,991.00653 5.296877,4.37589"
       id="path898"
       inkscape:connector-curvature="0" />
    <path
       inkscape:connector-curvature="0"
       id="path900"
       d="m 66.831105,987.60952 4.294184,5.39166"
       style="fill:#ffffff;stroke:#ffffff;stroke-width:0.375;stroke-linecap:butt;stroke-linejoin:miter;stroke-miterlimit:4;stroke-dasharray:none;stroke-opacity:1;fill-opacity:1" />
    <path
       style="fill:#ffffff;fill-opacity:1;stroke:none;stroke-width:0.63853157;stroke-linecap:butt;stroke-linejoin:miter;stroke-miterlimit:4;stroke-dasharray:none;stroke-opacity:1"
       d="m 74.644995,1019.6921 c 0.501476,-0.044 0.676866,-1.258 0.839238,-1.9612 1.309064,-5.6689 0.825121,-17.0626 0.825121,-17.0626 0,0 -0.483952,-11.39345 0.825124,-17.06251 0.162367,-0.70313 0.337759,-1.91734 0.839237,-1.96121 0.501475,-0.0439 0.465475,1.15814 0.506372,1.84348 0.329658,5.5257 -2.170734,17.18024 -2.170734,17.18024 0,0 -2.500398,11.6548 -2.170729,17.1804 0.0409,0.6853 0.0049,1.8873 0.506371,1.8434 z"
       id="path858"
       inkscape:connector-curvature="0"
       sodipodi:nodetypes="zscszscsz" />
    <path
       style="fill:#ffffff;stroke:#ffffff;stroke-width:0.375;stroke-linecap:butt;stroke-linejoin:miter;stroke-miterlimit:4;stroke-dasharray:none;stroke-opacity:1;fill-opacity:1"
       d="M 80.02529,982.89714 78.712882,990.512"
       id="path860"
       inkscape:connector-curvature="0" />
    <path
       inkscape:connector-curvature="0"
       id="path864"
       d="m 75.669627,983.27821 -0.01005,7.50092"
       style="fill:#ffffff;stroke:#ffffff;stroke-width:0.375;stroke-linecap:butt;stroke-linejoin:miter;stroke-miterlimit:4;stroke-dasharray:none;stroke-opacity:1;fill-opacity:1" />
    <path
       inkscape:connector-curvature="0"
       id="path866"
       d="m 76.949072,1018.0586 0.01005,-7.5009"
       style="fill:#ffffff;stroke:#ffffff;stroke-width:0.375;stroke-linecap:butt;stroke-linejoin:miter;stroke-miterlimit:4;stroke-dasharray:none;stroke-opacity:1;fill-opacity:1" />
    <path
       style="fill:#ffffff;stroke:#ffffff;stroke-width:0.375;stroke-linecap:butt;stroke-linejoin:miter;stroke-miterlimit:4;stroke-dasharray:none;stroke-opacity:1;fill-opacity:1"
       d="m 72.593405,1018.4397 1.312412,-7.6149"
       id="path870"
       inkscape:connector-curvature="0" />
    <path
       inkscape:connector-curvature="0"
       id="path894"
       d="m 85.787603,1013.7272 -4.294174,-5.3916"
       style="fill:#ffffff;stroke:#ffffff;stroke-width:0.375;stroke-linecap:butt;stroke-linejoin:miter;stroke-miterlimit:4;stroke-dasharray:none;stroke-opacity:1;fill-opacity:1" />
    <path
       style="fill:#ffffff;stroke:#ffffff;stroke-width:0.375;stroke-linecap:butt;stroke-linejoin:miter;stroke-miterlimit:4;stroke-dasharray:none;stroke-opacity:1;fill-opacity:1"
       d="m 89.141094,1010.3303 -5.296869,-4.376"
       id="path896"
       inkscape:connector-curvature="0" />
  </g>
</svg>
