<?xml version="1.0" encoding="UTF-8" standalone="no"?>
<!-- Created with Inkscape (http://www.inkscape.org/) -->

<svg
   xmlns:dc="http://purl.org/dc/elements/1.1/"
   xmlns:cc="http://creativecommons.org/ns#"
   xmlns:rdf="http://www.w3.org/1999/02/22-rdf-syntax-ns#"
   xmlns:svg="http://www.w3.org/2000/svg"
   xmlns="http://www.w3.org/2000/svg"
   xmlns:sodipodi="http://sodipodi.sourceforge.net/DTD/sodipodi-0.dtd"
   xmlns:inkscape="http://www.inkscape.org/namespaces/inkscape"
   width="300"
   height="200"
   viewBox="0 0 300 200.00001"
   version="1.1"
   id="svg12731"
   inkscape:version="0.92.3 (2405546, 2018-03-11)"
   sodipodi:docname="GotG-008B -vI.svg">
  <defs
     id="defs12725" />
  <sodipodi:namedview
     id="base"
     pagecolor="#ffffff"
     bordercolor="#666666"
     borderopacity="1.0"
     inkscape:pageopacity="0.0"
     inkscape:pageshadow="2"
     inkscape:zoom="2.55"
     inkscape:cx="150"
     inkscape:cy="22.535211"
     inkscape:document-units="px"
     inkscape:current-layer="layer24"
     showgrid="true"
     units="px"
     inkscape:snap-object-midpoints="true"
     inkscape:snap-text-baseline="true"
     inkscape:snap-grids="true"
     inkscape:snap-intersection-paths="false"
     inkscape:window-width="1200"
     inkscape:window-height="1857"
     inkscape:window-x="1912"
     inkscape:window-y="-2"
     inkscape:window-maximized="1">
    <inkscape:grid
       type="xygrid"
       id="grid13276"
       spacingx="10"
       spacingy="10" />
  </sodipodi:namedview>
  <metadata
     id="metadata12728">
    <rdf:RDF>
      <cc:Work
         rdf:about="">
        <dc:format>image/svg+xml</dc:format>
        <dc:type
           rdf:resource="http://purl.org/dc/dcmitype/StillImage" />
        <dc:title></dc:title>
      </cc:Work>
    </rdf:RDF>
  </metadata>
  <g
     inkscape:groupmode="layer"
     id="layer25"
     inkscape:label="background"
     style="display:inline"
     sodipodi:insensitive="true">
    <rect
       style="fill:#000000;fill-opacity:1;stroke:none;stroke-width:0.75;stroke-linecap:butt;stroke-linejoin:miter;stroke-miterlimit:4;stroke-dasharray:none;stroke-dashoffset:0;stroke-opacity:1"
       id="rect13374"
       width="300"
       height="200"
       x="0"
       y="0" />
  </g>
  <g
     inkscape:groupmode="layer"
     id="layer24"
     inkscape:label="banner"
     style="display:inline">
    <path
       style="fill:none;stroke:#ffffff;stroke-width:40;stroke-linecap:butt;stroke-linejoin:miter;stroke-miterlimit:4;stroke-dasharray:none;stroke-opacity:1"
       d="M -26.066019,1108.5857 186.06602,896.45365"
       id="path13278"
       inkscape:connector-curvature="0"
       sodipodi:nodetypes="cc"
       transform="translate(0,-922.51966)" />
    <text
       xml:space="preserve"
       style="font-style:normal;font-weight:normal;font-size:32px;line-height:1.25;font-family:sans-serif;text-align:center;letter-spacing:0px;word-spacing:0px;text-anchor:middle;fill:#000000;fill-opacity:1;stroke:none"
       x="-657.11157"
       y="777.83148"
       id="text13282"
       transform="rotate(-45,-1113.5797,-461.25983)"><tspan
         sodipodi:role="line"
         id="tspan13280"
         x="-657.11157"
         y="777.83148">MAJOR</tspan></text>
    <flowRoot
       xml:space="preserve"
       id="flowRoot14964"
       style="fill:black;fill-opacity:1;stroke:none;font-family:sans-serif;font-style:normal;font-weight:normal;font-size:40px;line-height:1.25;letter-spacing:0px;word-spacing:0px;text-anchor:middle;text-align:center"><flowRegion
         id="flowRegion14966"><rect
           id="rect14968"
           width="100"
           height="180"
           x="180"
           y="50" /></flowRegion><flowPara
         id="flowPara14970"></flowPara></flowRoot>  </g>
  <g
     inkscape:label="logo"
     inkscape:groupmode="layer"
     id="layer1"
     transform="translate(0,-922.51966)">
    <circle
       r="18.75"
       cy="1042.5197"
       cx="200"
       id="circle14718"
       style="fill:#ffffff;fill-opacity:1;stroke:none;stroke-width:0.5625;stroke-linecap:butt;stroke-linejoin:miter;stroke-miterlimit:4;stroke-dasharray:none;stroke-dashoffset:0;stroke-opacity:1" />
    <path
       style="fill:#ffffff;fill-opacity:1;stroke:none;stroke-width:0.38971144px;stroke-linecap:butt;stroke-linejoin:miter;stroke-opacity:1"
       d="m 200,1032.2073 c 0,0 4.61317,-12.0399 3.375,-18 -0.42469,-2.0444 -1.78401,-4.5 -3.375,-4.5 -1.591,0 -2.95031,2.4556 -3.375,4.5 -1.23817,5.9601 3.375,18 3.375,18 z"
       id="path14804"
       inkscape:connector-curvature="0"
       sodipodi:nodetypes="cszsc" />
    <path
       sodipodi:nodetypes="cszsc"
       inkscape:connector-curvature="0"
       id="path14806"
       d="m 208.06259,1036.0901 c 0,0 12.28941,-3.8999 16.1773,-8.584 1.3336,-1.6067 2.40597,-4.2005 1.41401,-5.4444 -0.99196,-1.2439 -3.75935,-0.7756 -5.62252,0.167 -5.43185,2.748 -11.96879,13.8614 -11.96879,13.8614 z"
       style="fill:#ffffff;fill-opacity:1;stroke:none;stroke-width:0.38971144px;stroke-linecap:butt;stroke-linejoin:miter;stroke-opacity:1" />
    <path
       style="fill:#ffffff;fill-opacity:1;stroke:none;stroke-width:0.38971144px;stroke-linecap:butt;stroke-linejoin:miter;stroke-opacity:1"
       d="m 210.05379,1044.8146 c 0,0 10.71133,7.1767 16.79758,7.296 2.08764,0.041 4.78417,-0.7379 5.13822,-2.289 0.35406,-1.5511 -1.73748,-3.4228 -3.6361,-4.2918 -5.53517,-2.5334 -18.2997,-0.7152 -18.2997,-0.7152 z"
       id="path14808"
       inkscape:connector-curvature="0"
       sodipodi:nodetypes="cszsc" />
    <path
       sodipodi:nodetypes="cszsc"
       inkscape:connector-curvature="0"
       id="path14810"
       d="m 204.47416,1051.8109 c 0,0 1.06732,12.849 4.76872,17.6819 1.26956,1.6577 3.55977,3.2803 4.99321,2.5901 1.43346,-0.6903 1.59277,-3.4925 1.08842,-5.5187 -1.47033,-5.9072 -10.85035,-14.7533 -10.85035,-14.7533 z"
       style="fill:#ffffff;fill-opacity:1;stroke:none;stroke-width:0.38971144px;stroke-linecap:butt;stroke-linejoin:miter;stroke-opacity:1" />
    <path
       style="fill:#ffffff;fill-opacity:1;stroke:none;stroke-width:0.38971144px;stroke-linecap:butt;stroke-linejoin:miter;stroke-opacity:1"
       d="m 195.52533,1051.8107 c 0,0 -9.38035,8.8457 -10.85112,14.7528 -0.5045,2.0261 -0.3452,4.8284 1.08815,5.5187 1.43344,0.6904 3.72363,-0.9322 4.99333,-2.5898 3.70173,-4.8326 4.76964,-17.6817 4.76964,-17.6817 z"
       id="path14812"
       inkscape:connector-curvature="0"
       sodipodi:nodetypes="cszsc" />
    <path
       sodipodi:nodetypes="cszsc"
       inkscape:connector-curvature="0"
       id="path14814"
       d="m 189.94607,1044.814 c 0,0 -12.76438,-1.8187 -18.29977,0.7142 -1.89862,0.8689 -3.99024,2.7407 -3.63627,4.2916 0.35394,1.5512 3.05045,2.3301 5.13806,2.2893 6.08627,-0.1189 16.79798,-7.2951 16.79798,-7.2951 z"
       style="fill:#ffffff;fill-opacity:1;stroke:none;stroke-width:0.38971144px;stroke-linecap:butt;stroke-linejoin:miter;stroke-opacity:1" />
    <path
       style="fill:#ffffff;fill-opacity:1;stroke:none;stroke-width:0.38971144px;stroke-linecap:butt;stroke-linejoin:miter;stroke-opacity:1"
       d="m 191.93777,1036.0896 c 0,0 -6.53646,-11.1136 -11.96808,-13.8621 -1.86301,-0.9427 -4.63055,-1.411 -5.62248,-0.1672 -0.99207,1.2439 0.0802,3.8377 1.41368,5.4444 3.88765,4.6844 16.17688,8.5849 16.17688,8.5849 z"
       id="path14816"
       inkscape:connector-curvature="0"
       sodipodi:nodetypes="cszsc" />
    <path
       sodipodi:nodetypes="cssc"
       inkscape:connector-curvature="0"
       id="path14734"
       d="m 188.75,1035.4883 c 0,0 3.52869,2.8125 5.625,2.8125 4.19262,0 7.05737,-5.625 11.25,-5.625 2.09631,0 5.625,2.8125 5.625,2.8125"
       style="fill:none;stroke:#000000;stroke-width:2.25;stroke-linecap:round;stroke-linejoin:miter;stroke-miterlimit:4;stroke-dasharray:none;stroke-opacity:1" />
    <path
       style="fill:none;stroke:#000000;stroke-width:2.25;stroke-linecap:round;stroke-linejoin:miter;stroke-miterlimit:4;stroke-dasharray:none;stroke-opacity:1"
       d="m 188.75,1049.551 c 0,0 3.52869,2.8125 5.625,2.8125 4.19262,0 7.05737,-5.6251 11.25,-5.6251 2.09631,0 5.625,2.8126 5.625,2.8126"
       id="path14736"
       inkscape:connector-curvature="0"
       sodipodi:nodetypes="cssc" />
    <path
       sodipodi:nodetypes="cc"
       inkscape:connector-curvature="0"
       id="path14738"
       d="m 200,1035.4883 v 14.0627"
       style="fill:none;stroke:#000000;stroke-width:2.25;stroke-linecap:butt;stroke-linejoin:miter;stroke-miterlimit:4;stroke-dasharray:none;stroke-opacity:1" />
  </g>
</svg>
